<?xml version="1.0" encoding="UTF-8"?>
<svg id="Layer_1" data-name="Layer 1" xmlns="http://www.w3.org/2000/svg" version="1.1" viewBox="0 0 600 283">
  <defs>
    <style>
      .cls-1 {
        fill: #93193e;
      }

      .cls-1, .cls-2 {
        stroke-width: 0px;
      }

      .cls-2, .cls-3 {
        fill: #fff;
      }

      .cls-3 {
        stroke: #fff;
        stroke-miterlimit: 10;
      }
    </style>
  </defs>
  <g>
    <path class="cls-1" d="M302.99,216.66v-73.08h-28.94v-21.13h84.39v21.13h-28.8v73.08h-26.65Z"/>
    <path class="cls-1" d="M368.4,216.66v-94.21h21.94l39.03,64.06h-11.57l37.95-64.06h21.94l.27,94.21h-24.5l-.27-56.93h4.17l-28.4,47.64h-11.84l-29.21-47.64h5.11v56.93h-24.63Z"/>
    <path class="cls-1" d="M543.77,218.54c-7.45,0-14.33-1.19-20.66-3.57-6.33-2.38-11.8-5.76-16.42-10.16-4.62-4.4-8.23-9.58-10.83-15.54-2.6-5.97-3.9-12.54-3.9-19.72s1.3-13.75,3.9-19.72c2.6-5.96,6.21-11.15,10.83-15.54,4.62-4.4,10.09-7.78,16.42-10.16,6.33-2.38,13.21-3.57,20.66-3.57,8.7,0,16.49,1.53,23.35,4.58,6.87,3.05,12.58,7.45,17.16,13.19l-16.96,15.34c-3.05-3.59-6.39-6.33-10.03-8.21-3.63-1.88-7.69-2.83-12.18-2.83-3.86,0-7.4.63-10.63,1.88-3.23,1.26-5.99,3.07-8.28,5.45-2.29,2.38-4.08,5.23-5.38,8.55-1.3,3.32-1.95,7-1.95,11.04s.65,7.72,1.95,11.04c1.3,3.32,3.1,6.17,5.38,8.55,2.29,2.38,5.05,4.2,8.28,5.45,3.23,1.26,6.77,1.88,10.63,1.88,4.49,0,8.55-.94,12.18-2.83,3.63-1.88,6.98-4.62,10.03-8.21l16.96,15.34c-4.58,5.65-10.3,10.03-17.16,13.12-6.86,3.1-14.65,4.64-23.35,4.64Z"/>
  </g>
  <path class="cls-2" d="M125.79,272.98C-1.16,197.45,50.64,87.02,50.64,87.02c0,0,69.87-23.18,151.61.04,0,0,50.94,111.65-76.46,185.92"/>
  <path class="cls-1" d="M125.91,264.24C10.92,196.64,57.48,94.96,57.48,94.96c0,0,69.7-20.77,137.78-.09,0,0,46.44,102.25-69.34,169.37"/>
  <path class="cls-2" d="M158.4,51.78c-1.6,5.09-14.21,18.51-33.93,24.55-21.16,6.48-44.51,13.29-45.14,53.05-.78,52,42.06,78.81,42.06,78.81-21.15-31.49-21.67-83.41,12.68-106.48,34.83-23.38,24.33-49.93,24.33-49.93Z"/>
  <path class="cls-3" d="M76.84,77.11c0-5.43,4.46-9.82,9.91-9.71,5.44.11,9.95,5.14,9.48,10.57-.43,4.98-4.59,8.88-9.68,8.88-5.36,0-9.72-4.35-9.72-9.73"/>
  <path class="cls-1" d="M121.4,208.16c-4.99-3.32-16.53-16.44-23.6-30.03-4.68-9.03-12.46-28.12-11.92-49.09.23-8.98,2.13-29.54,17.14-39.44,15.01-9.9,23.23-8.06,39.46-15.67,11.89-5.57,15.9-22.03,15.9-22.03-.07,32.97-30.38,41.78-43.16,56.99-12.78,15.2-15.49,29.16-14.09,47.75,2.22,29.39,20.27,51.52,20.27,51.52"/>
  <path class="cls-2" d="M86.94,227.02s25.45,2.71,54.71-17.17c29.26-19.88,55.82-40.72,96.38-35.95,0,0-15.34,4.21-56.46,34.35-37.7,27.63-79.85,28-94.63,18.77"/>
  <path class="cls-1" d="M155.64,9.74s.25,9.22.31,10.18c0,0-6.2,4.54-9.15,7.96,0,0,6.93.63,10.58.39,0,0,1.03,12.72.56,15.58,0,0,5-13.43,5-14.94l5.65,2.86s-2.15-6.99-2.86-8.66c0,0,2.78-4.93,2.95-5.81,0,0-5.26.24-6.68.55,0,0-5.33-6.98-6.36-8.1"/>
  <path class="cls-2" d="M122.42,208.01s-46.61-81.16,33.55-111.5l-11.04,59.87s-26.93,8.04-22.51,51.63"/>
  <path class="cls-2" d="M154.56,117.4l-8.02,40.92s-27.31,7.17-24.12,49.61c0,0,2.22-38.49,34.37-40.1l13.06-53.25s-10.44,1.21-15.28,2.81"/>
  <path class="cls-2" d="M167.84,131.46l-9.56,38.47s-30.29-1.61-35.85,37.82c0,0,11.84-35.31,45.8-28.07l14.27-47.82s-11.66-.81-14.66-.4"/>
  <path class="cls-2" d="M24.28,193.06s25.47-4.46,53.53,12.98c18.82,11.69,36.35,8.78,36.35,8.78,0,0-26.83,16.44-57.36-2.85-10.24-6.46-19.04-14.84-32.52-18.91"/>
  <path class="cls-1" d="M158.4,51.78s4.63,11.74-2.49,26.47c14.7,1.51,30.28,4.26,46.34,8.82,0,0,18.26,40.05,5.54,88.13,5.99-1.26,12.26-1.97,18.91-1.97,3.66,0,7.43.22,11.33.67,0,0-10.43,2.89-37.01,20.69-11.7,26.69-34.21,54.48-75.23,78.39-30.17-17.95-50.23-37.87-63.3-57.81-1.88-.94-3.77-2.01-5.69-3.22-10.24-6.46-19.04-14.84-32.52-18.91,0,0,2.87-.49,7.75-.49,4.81,0,11.57.48,19.45,2.39-24.9-56.6-.84-107.92-.84-107.92,0,0,10.04-3.33,26.95-6.2-.48-1.15-.74-2.4-.74-3.72,0-5.37,4.35-9.72,9.72-9.72.07,0,.13,0,.2,0,5.44.11,9.95,5.14,9.48,10.57-.01.12-.05.23-.06.34,8.13-.84,17.15-1.42,26.85-1.53.48-.15.97-.3,1.45-.44,19.72-6.04,32.33-19.46,33.93-24.55M157.98,39.8l-3.39,10.77c-.45,1.44-3.27,5.44-8.88,10.02-4.52,3.68-12.07,8.74-22.4,11.91l-.9.28c-7.54.1-15.1.49-22.54,1.15-.55-2.16-1.63-4.21-3.18-5.93-2.56-2.85-6.15-4.53-9.84-4.6-.09,0-.18,0-.28,0-3.66,0-7.11,1.43-9.7,4.02-2.59,2.59-4.02,6.04-4.02,9.7,0,.17,0,.33,0,.5-14.54,2.69-23.08,5.49-23.47,5.62l-1.63.54-.73,1.56c-.26.55-6.3,13.6-9.25,33.86-2.51,17.23-3.1,42.89,7.22,70.4-4.37-.68-8.75-1.03-12.95-1.03-5.16,0-8.3.53-8.43.55l-16.72,2.87,16.24,4.9c9.1,2.74,15.85,7.54,23,12.62,2.75,1.96,5.6,3.98,8.55,5.84,1.66,1.05,3.36,2.03,5.06,2.91,14.7,22.07,36.23,41.63,64.01,58.16l2.02,1.2,2.04-1.19c36.76-21.43,62.46-48.06,76.4-79.17,24.7-16.44,34.82-19.49,34.92-19.52l19.67-5.45-20.29-2.37c-3.96-.47-7.93-.7-11.8-.7-4.6,0-9.1.32-13.6.97,5-23.16,3.18-43.99.61-57.82-3.03-16.32-7.64-26.54-7.83-26.96l-.77-1.68-1.78-.51c-13.43-3.82-27.44-6.62-41.72-8.36,4.66-13.68.7-24.07.5-24.55l-4.14-10.51h0Z"/>
</svg>